<?xml version="1.0" encoding="UTF-8" standalone="no"?>
<!-- Created with Inkscape (http://www.inkscape.org/) -->

<svg
   width="59.148418mm"
   height="59.148418mm"
   viewBox="0 0 59.148418 59.148419"
   version="1.1"
   id="svg5"
   sodipodi:docname="curved_potential_derivation.svg"
   inkscape:version="1.2.1 (9c6d41e410, 2022-07-14, custom)"
   xmlns:inkscape="http://www.inkscape.org/namespaces/inkscape"
   xmlns:sodipodi="http://sodipodi.sourceforge.net/DTD/sodipodi-0.dtd"
   xmlns="http://www.w3.org/2000/svg"
   xmlns:svg="http://www.w3.org/2000/svg">
  <sodipodi:namedview
     id="namedview7"
     pagecolor="#ffffff"
     bordercolor="#000000"
     borderopacity="0.25"
     inkscape:showpageshadow="2"
     inkscape:pageopacity="0.0"
     inkscape:pagecheckerboard="0"
     inkscape:deskcolor="#d1d1d1"
     inkscape:document-units="mm"
     showgrid="false"
     inkscape:zoom="2.6920101"
     inkscape:cx="95.096226"
     inkscape:cy="134.28627"
     inkscape:window-width="1920"
     inkscape:window-height="1026"
     inkscape:window-x="0"
     inkscape:window-y="26"
     inkscape:window-maximized="1"
     inkscape:current-layer="layer1" />
  <defs
     id="defs2">
    <marker
       style="overflow:visible"
       id="TriangleStart"
       refX="0"
       refY="0"
       orient="auto-start-reverse"
       inkscape:stockid="TriangleStart"
       markerWidth="5.3244081"
       markerHeight="6.155385"
       viewBox="0 0 5.3244081 6.1553851"
       inkscape:isstock="true"
       inkscape:collect="always"
       preserveAspectRatio="xMidYMid">
      <path
         transform="scale(0.5)"
         style="fill:context-stroke;fill-rule:evenodd;stroke:context-stroke;stroke-width:1pt"
         d="M 5.77,0 -2.88,5 V -5 Z"
         id="path135" />
    </marker>
    <clipPath
       id="clipPath7175">
      <path
         clip-rule="nonzero"
         d="M 0,2 H 9 V 13.28125 H 0 Z m 0,0"
         id="path2049" />
    </clipPath>
    <clipPath
       id="clipPath2932">
      <path
         clip-rule="nonzero"
         d="M 0,2 H 9 V 13.28125 H 0 Z m 0,0"
         id="path2133" />
    </clipPath>
    <clipPath
       id="clipPath4433">
      <path
         clip-rule="nonzero"
         d="M 39,0 H 67 V 10.628906 H 39 Z m 0,0"
         id="path8285" />
    </clipPath>
    <clipPath
       id="clipPath5846">
      <path
         clip-rule="nonzero"
         d="M 0,0 H 12 V 8.300781 H 0 Z m 0,0"
         id="path6159" />
    </clipPath>
    <clipPath
       id="clipPath4672">
      <path
         clip-rule="nonzero"
         d="M 0,0 H 5.78125 V 8.300781 H 0 Z m 0,0"
         id="path5041" />
    </clipPath>
    <clipPath
       id="clipPath4427">
      <path
         clip-rule="nonzero"
         d="M 0,0 H 4 V 7.351562 H 0 Z m 0,0"
         id="path4423" />
    </clipPath>
    <clipPath
       id="clipPath9022">
      <path
         clip-rule="nonzero"
         d="M 0,0 H 4 V 7.351562 H 0 Z m 0,0"
         id="path8636" />
    </clipPath>
    <clipPath
       id="clipPath7323">
      <path
         clip-rule="nonzero"
         d="M 0,0 H 4 V 7.351562 H 0 Z m 0,0"
         id="path5650" />
    </clipPath>
    <clipPath
       id="clipPath3550">
      <path
         clip-rule="nonzero"
         d="M 0,0 H 10 V 8.300781 H 0 Z m 0,0"
         id="path6769" />
    </clipPath>
  </defs>
  <g
     inkscape:label="Layer 1"
     inkscape:groupmode="layer"
     id="layer1"
     transform="translate(-32.0829, -10.3181)">
    <circle
       style="fill:none;stroke:#000000;stroke-width:0.264999"
       id="path346"
       cx="61.657139"
       cy="39.892323"
       r="29.44171" />
    <path
       style="fill:none;stroke:#000000;stroke-width:0.198749;stroke-dasharray:none"
       id="path346-6"
       sodipodi:type="arc"
       sodipodi:cx="32.272072"
       sodipodi:cy="41.22496"
       sodipodi:rx="22.081282"
       sodipodi:ry="22.081282"
       sodipodi:start="5.0482692"
       sodipodi:end="0.0097095635"
       sodipodi:open="true"
       sodipodi:arc-type="arc"
       d="M 39.55007,20.377568 A 22.081282,22.081282 0 0 1 54.352313,41.439357" />
    <path
       style="fill:none;stroke:#000000;stroke-width:0.264999;stroke-dasharray:0.264999, 0.53;stroke-dashoffset:0"
       d="M 48.934496,13.001221 Z"
       id="path2043" />
    <path
       style="fill:none;stroke:#000000;stroke-width:0.272;stroke-dasharray:none"
       d="M 32.218306,41.233964 H 54.360161"
       id="path438" />
    <path
       style="fill:none;stroke:#000000;stroke-width:0.272;stroke-dasharray:0.27200001,0.27200001;stroke-dashoffset:0"
       d="M 90.990614,41.231391 H 48.58787"
       id="path438-7" />
    <path
       style="fill:none;stroke:#000000;stroke-width:0.220724;stroke-dasharray:none"
       d="M 32.353479,41.232923 39.629737,20.569968"
       id="path438-3"
       inkscape:transform-center-x="3.593119"
       inkscape:transform-center-y="10.276193" />
    <g
       inkscape:label=""
       transform="translate(36.514006,29.698177)"
       id="g3747" />
    <g
       inkscape:label=""
       transform="translate(34.708331,37.547678)"
       id="g5344">
      <g
         clip-path="url(#clipPath4672)"
         id="g17"
         transform="matrix(0.352778,0,0,0.352778,-0.170877,0.0422892)">
        <g
           fill="#000000"
           fill-opacity="1"
           id="g15">
          <g
             id="use13"
             transform="translate(0,8.302)">
            <path
               d="m 5.296875,-6.015625 c 0,-1.21875 -0.390625,-2.40625 -1.359375,-2.40625 -1.671875,0 -3.453125,3.515625 -3.453125,6.140625 0,0.546875 0.109375,2.40625 1.375,2.40625 1.625,0 3.4375,-3.421875 3.4375,-6.140625 z m -3.625,1.6875 c 0.1875,-0.703125 0.4375,-1.703125 0.90625,-2.5625 0.390625,-0.71875 0.8125,-1.28125 1.34375,-1.28125 0.390625,0 0.65625,0.328125 0.65625,1.484375 0,0.421875 -0.03125,1.015625 -0.375,2.359375 z m 2.4375,0.359375 C 3.8125,-2.796875 3.5625,-2.046875 3.125,-1.296875 2.78125,-0.6875 2.359375,-0.125 1.859375,-0.125 1.5,-0.125 1.1875,-0.40625 1.1875,-1.59375 c 0,-0.765625 0.203125,-1.578125 0.390625,-2.375 z m 0,0"
               id="path23" />
          </g>
        </g>
      </g>
    </g>
    <path
       style="fill:none;stroke:#000000;stroke-width:0.272;stroke-dasharray:1.088, 0.272;stroke-dashoffset:0;marker-start:url(#TriangleStart)"
       id="path7212"
       sodipodi:type="arc"
       sodipodi:cx="58.55706"
       sodipodi:cy="41.220249"
       sodipodi:rx="2.1963079"
       sodipodi:ry="4.0033474"
       sodipodi:start="5.0482692"
       sodipodi:end="3.6606679"
       sodipodi:open="true"
       sodipodi:arc-type="arc"
       d="m 59.280964,37.440607 a 2.1963079,4.0033474 0 0 1 1.472271,3.735526 2.1963079,4.0033474 0 0 1 -1.426748,3.793761 2.1963079,4.0033474 0 0 1 -2.442415,-1.155887 2.1963079,4.0033474 0 0 1 -0.234018,-4.579728" />
    <g
       inkscape:label=""
       transform="translate(44.051872,42.468061)"
       id="g404">
      <g
         clip-path="url(#clipPath4427)"
         id="g402"
         transform="matrix(0.352778,0,0,0.352778,-0.0937066,0.040834)">
        <g
           fill="#000000"
           fill-opacity="1"
           id="g400">
          <g
             id="g398"
             transform="translate(0,7.3530002)">
            <path
               d="M 2.40625,-4.8125 H 3.5 c 0.234375,0 0.34375,0 0.34375,-0.203125 0,-0.140625 -0.0625,-0.140625 -0.3125,-0.140625 H 2.484375 l 0.4375,-1.734375 C 2.96875,-7.0625 2.96875,-7.09375 2.96875,-7.171875 c 0,-0.1875 -0.140625,-0.296875 -0.296875,-0.296875 -0.109375,0 -0.375,0.03125 -0.46875,0.421875 l -0.46875,1.890625 h -1.125 c -0.234375,0 -0.34375,0 -0.34375,0.234375 0,0.109375 0.078125,0.109375 0.3125,0.109375 h 1.0625 L 0.84375,-1.65625 c -0.09375,0.421875 -0.125,0.546875 -0.125,0.703125 0,0.5625 0.390625,1.078125 1.0625,1.078125 1.203125,0 1.859375,-1.75 1.859375,-1.828125 0,-0.078125 -0.0625,-0.109375 -0.125,-0.109375 -0.03125,0 -0.078125,0 -0.09375,0.046875 C 3.40625,-1.75 3.390625,-1.75 3.3125,-1.546875 c -0.25,0.59375 -0.796875,1.421875 -1.5,1.421875 -0.359375,0 -0.375,-0.296875 -0.375,-0.5625 0,0 0,-0.234375 0.03125,-0.375 z m 0,0"
               id="path396" />
          </g>
        </g>
      </g>
    </g>
    <g
       inkscape:label=""
       transform="translate(37.16798,29.047233)"
       id="g612">
      <g
         clip-path="url(#clipPath7323)"
         id="g610"
         transform="matrix(0.352778,0,0,0.352778,-0.0937066,0.040834)">
        <g
           fill="#000000"
           fill-opacity="1"
           id="g608">
          <g
             id="g606"
             transform="translate(0,7.3530002)">
            <path
               d="M 2.40625,-4.8125 H 3.5 c 0.234375,0 0.34375,0 0.34375,-0.203125 0,-0.140625 -0.0625,-0.140625 -0.3125,-0.140625 H 2.484375 l 0.4375,-1.734375 C 2.96875,-7.0625 2.96875,-7.09375 2.96875,-7.171875 c 0,-0.1875 -0.140625,-0.296875 -0.296875,-0.296875 -0.109375,0 -0.375,0.03125 -0.46875,0.421875 l -0.46875,1.890625 h -1.125 c -0.234375,0 -0.34375,0 -0.34375,0.234375 0,0.109375 0.078125,0.109375 0.3125,0.109375 h 1.0625 L 0.84375,-1.65625 c -0.09375,0.421875 -0.125,0.546875 -0.125,0.703125 0,0.5625 0.390625,1.078125 1.0625,1.078125 1.203125,0 1.859375,-1.75 1.859375,-1.828125 0,-0.078125 -0.0625,-0.109375 -0.125,-0.109375 -0.03125,0 -0.078125,0 -0.09375,0.046875 C 3.40625,-1.75 3.390625,-1.75 3.3125,-1.546875 c -0.25,0.59375 -0.796875,1.421875 -1.5,1.421875 -0.359375,0 -0.375,-0.296875 -0.375,-0.5625 0,0 0,-0.234375 0.03125,-0.375 z m 0,0"
               id="path604" />
          </g>
        </g>
      </g>
    </g>
    <g
       inkscape:label=""
       transform="translate(51.901556,27.194548)"
       id="g725">
      <g
         clip-path="url(#clipPath3550)"
         id="g22"
         transform="matrix(0.352778,0,0,0.352778,-0.0937066,0.0422892)">
        <g
           fill="#000000"
           fill-opacity="1"
           id="g20">
          <g
             id="use16"
             transform="translate(0,8.302)">
            <path
               d="M 2.40625,-4.8125 H 3.5 c 0.234375,0 0.34375,0 0.34375,-0.203125 0,-0.140625 -0.0625,-0.140625 -0.3125,-0.140625 H 2.484375 l 0.4375,-1.734375 C 2.96875,-7.0625 2.96875,-7.09375 2.96875,-7.171875 c 0,-0.1875 -0.140625,-0.296875 -0.296875,-0.296875 -0.109375,0 -0.375,0.03125 -0.46875,0.421875 l -0.46875,1.890625 h -1.125 c -0.234375,0 -0.34375,0 -0.34375,0.234375 0,0.109375 0.078125,0.109375 0.3125,0.109375 h 1.0625 L 0.84375,-1.65625 c -0.09375,0.421875 -0.125,0.546875 -0.125,0.703125 0,0.5625 0.390625,1.078125 1.0625,1.078125 1.203125,0 1.859375,-1.75 1.859375,-1.828125 0,-0.078125 -0.0625,-0.109375 -0.125,-0.109375 -0.03125,0 -0.078125,0 -0.09375,0.046875 C 3.40625,-1.75 3.390625,-1.75 3.3125,-1.546875 c -0.25,0.59375 -0.796875,1.421875 -1.5,1.421875 -0.359375,0 -0.375,-0.296875 -0.375,-0.5625 0,0 0,-0.234375 0.03125,-0.375 z m 0,0"
               id="path28" />
          </g>
          <g
             id="use18"
             transform="translate(4.2273588,8.302)">
            <path
               d="m 5.296875,-6.015625 c 0,-1.21875 -0.390625,-2.40625 -1.359375,-2.40625 -1.671875,0 -3.453125,3.515625 -3.453125,6.140625 0,0.546875 0.109375,2.40625 1.375,2.40625 1.625,0 3.4375,-3.421875 3.4375,-6.140625 z m -3.625,1.6875 c 0.1875,-0.703125 0.4375,-1.703125 0.90625,-2.5625 0.390625,-0.71875 0.8125,-1.28125 1.34375,-1.28125 0.390625,0 0.65625,0.328125 0.65625,1.484375 0,0.421875 -0.03125,1.015625 -0.375,2.359375 z m 2.4375,0.359375 C 3.8125,-2.796875 3.5625,-2.046875 3.125,-1.296875 2.78125,-0.6875 2.359375,-0.125 1.859375,-0.125 1.5,-0.125 1.1875,-0.40625 1.1875,-1.59375 c 0,-0.765625 0.203125,-1.578125 0.390625,-2.375 z m 0,0"
               id="path32" />
          </g>
        </g>
      </g>
    </g>
  </g>
</svg>
