<?xml version="1.0" encoding="UTF-8" standalone="no"?>
<!-- Created with Inkscape (http://www.inkscape.org/) -->

<svg
   width="86.361mm"
   height="70.181mm"
   viewBox="0 0 73.187288 59.475423"
   version="1.1"
   id="svg5"
   sodipodi:docname="curved_potential_derivation.svg"
   inkscape:version="1.2.2 (b0a8486541, 2022-12-01)"
   inkscape:export-filename="curved_potential_derivation.pdf"
   inkscape:export-xdpi="96"
   inkscape:export-ydpi="96"
   xmlns:inkscape="http://www.inkscape.org/namespaces/inkscape"
   xmlns:sodipodi="http://sodipodi.sourceforge.net/DTD/sodipodi-0.dtd"
   xmlns="http://www.w3.org/2000/svg"
   xmlns:svg="http://www.w3.org/2000/svg">
  <sodipodi:namedview
     id="namedview7"
     pagecolor="#ffffff"
     bordercolor="#000000"
     borderopacity="0.25"
     inkscape:showpageshadow="2"
     inkscape:pageopacity="0.0"
     inkscape:pagecheckerboard="0"
     inkscape:deskcolor="#d1d1d1"
     inkscape:document-units="mm"
     showgrid="false"
     inkscape:zoom="2.6920101"
     inkscape:cx="69.836291"
     inkscape:cy="135.02921"
     inkscape:window-width="2560"
     inkscape:window-height="1026"
     inkscape:window-x="0"
     inkscape:window-y="26"
     inkscape:window-maximized="1"
     inkscape:current-layer="layer1" />
  <defs
     id="defs2">
    <marker
       style="overflow:visible"
       id="TriangleStart"
       refX="0"
       refY="0"
       orient="auto-start-reverse"
       inkscape:stockid="TriangleStart"
       markerWidth="5.3244081"
       markerHeight="6.155385"
       viewBox="0 0 5.3244081 6.1553851"
       inkscape:isstock="true"
       inkscape:collect="always"
       preserveAspectRatio="xMidYMid">
      <path
         transform="scale(0.5)"
         style="fill:context-stroke;fill-rule:evenodd;stroke:context-stroke;stroke-width:1pt"
         d="M 5.77,0 -2.88,5 V -5 Z"
         id="path135" />
    </marker>
    <clipPath
       id="clipPath7175">
      <path
         clip-rule="nonzero"
         d="M 0,2 H 9 V 13.28125 H 0 Z m 0,0"
         id="path2049" />
    </clipPath>
    <clipPath
       id="clipPath2932">
      <path
         clip-rule="nonzero"
         d="M 0,2 H 9 V 13.28125 H 0 Z m 0,0"
         id="path2133" />
    </clipPath>
    <clipPath
       id="clipPath4433">
      <path
         clip-rule="nonzero"
         d="M 39,0 H 67 V 10.628906 H 39 Z m 0,0"
         id="path8285" />
    </clipPath>
    <clipPath
       id="clipPath5846">
      <path
         clip-rule="nonzero"
         d="M 0,0 H 12 V 8.300781 H 0 Z m 0,0"
         id="path6159" />
    </clipPath>
    <clipPath
       id="clipPath4672">
      <path
         clip-rule="nonzero"
         d="M 0,0 H 5.78125 V 8.300781 H 0 Z m 0,0"
         id="path5041" />
    </clipPath>
    <clipPath
       id="clipPath4427">
      <path
         clip-rule="nonzero"
         d="M 0,0 H 4 V 7.351562 H 0 Z m 0,0"
         id="path4423" />
    </clipPath>
    <clipPath
       id="clipPath9022">
      <path
         clip-rule="nonzero"
         d="M 0,0 H 4 V 7.351562 H 0 Z m 0,0"
         id="path8636" />
    </clipPath>
    <clipPath
       id="clipPath7323">
      <path
         clip-rule="nonzero"
         d="M 0,0 H 4 V 7.351562 H 0 Z m 0,0"
         id="path5650" />
    </clipPath>
    <clipPath
       id="clipPath3550">
      <path
         clip-rule="nonzero"
         d="M 0,0 H 10 V 8.300781 H 0 Z m 0,0"
         id="path6769" />
    </clipPath>
    <clipPath
       id="clipPath5942">
      <path
         clip-rule="nonzero"
         d="M 0,0 H 15.523438 V 8.300781 H 0 Z m 0,0"
         id="path2706" />
    </clipPath>
    <clipPath
       id="clipPath4293">
      <path
         clip-rule="nonzero"
         d="M 0,0 H 11 V 8.300781 H 0 Z m 0,0"
         id="path6397" />
    </clipPath>
    <clipPath
       id="clipPath1898">
      <path
         clip-rule="nonzero"
         d="M 0,0 H 5 V 5.148438 H 0 Z m 0,0"
         id="path9944" />
    </clipPath>
    <clipPath
       id="clipPath3331">
      <path
         clip-rule="nonzero"
         d="M 0,0 H 5 V 5.148438 H 0 Z m 0,0"
         id="path3462" />
    </clipPath>
  </defs>
  <g
     inkscape:label="Layer 1"
     inkscape:groupmode="layer"
     id="layer1"
     transform="translate(-32.0829, -10.3181)">
    <g
       inkscape:label=""
       transform="translate(36.514006,29.698177)"
       id="g3747" />
    <ellipse
       style="fill:none;stroke:#000000;stroke-width:0.225761"
       id="path346"
       cx="68.676544"
       cy="35.392204"
       rx="25.203476"
       ry="24.961765" />
    <path
       style="fill:none;stroke:#000000;stroke-width:0.169321;stroke-dasharray:none"
       id="path346-6"
       sodipodi:type="arc"
       sodipodi:cx="43.521557"
       sodipodi:cy="36.522064"
       sodipodi:rx="18.902607"
       sodipodi:ry="18.721323"
       sodipodi:start="5.0482692"
       sodipodi:end="0.0097095635"
       sodipodi:open="true"
       sodipodi:arc-type="arc"
       d="M 49.751862,18.846878 A 18.902607,18.721323 0 0 1 62.423273,36.703837" />
    <path
       style="fill:none;stroke:#000000;stroke-width:0.225761;stroke-dasharray:0.225761, 0.451524;stroke-dashoffset:0"
       d="M 57.785368,12.592937 Z"
       id="path2043" />
    <path
       style="fill:none;stroke:#000000;stroke-width:0.231725;stroke-dasharray:none"
       d="M 43.47553,36.529696 H 62.42999"
       id="path438" />
    <path
       style="fill:none;stroke:#000000;stroke-width:0.231725;stroke-dasharray:0.231725, 0.231725;stroke-dashoffset:0"
       d="M 93.787365,36.527515 H 57.48864"
       id="path438-7" />
    <path
       style="fill:none;stroke:#000000;stroke-width:0.188042;stroke-dasharray:none"
       d="M 43.591245,36.528813 49.820061,19.01"
       id="path438-3"
       inkscape:transform-center-x="3.593119"
       inkscape:transform-center-y="10.276193" />
    <g
       inkscape:label=""
       transform="matrix(0.8560466,0,0,0.84783681,45.607108,33.404327)"
       id="g5344">
      <g
         clip-path="url(#clipPath4672)"
         id="g17"
         transform="matrix(0.352778,0,0,0.352778,-0.170877,0.0422892)">
        <g
           fill="#000000"
           fill-opacity="1"
           id="g15">
          <g
             id="use13"
             transform="translate(0,8.302)">
            <path
               d="m 5.296875,-6.015625 c 0,-1.21875 -0.390625,-2.40625 -1.359375,-2.40625 -1.671875,0 -3.453125,3.515625 -3.453125,6.140625 0,0.546875 0.109375,2.40625 1.375,2.40625 1.625,0 3.4375,-3.421875 3.4375,-6.140625 z m -3.625,1.6875 c 0.1875,-0.703125 0.4375,-1.703125 0.90625,-2.5625 0.390625,-0.71875 0.8125,-1.28125 1.34375,-1.28125 0.390625,0 0.65625,0.328125 0.65625,1.484375 0,0.421875 -0.03125,1.015625 -0.375,2.359375 z m 2.4375,0.359375 C 3.8125,-2.796875 3.5625,-2.046875 3.125,-1.296875 2.78125,-0.6875 2.359375,-0.125 1.859375,-0.125 1.5,-0.125 1.1875,-0.40625 1.1875,-1.59375 c 0,-0.765625 0.203125,-1.578125 0.390625,-2.375 z m 0,0"
               id="path23" />
          </g>
        </g>
      </g>
    </g>
    <path
       style="fill:none;stroke:#000000;stroke-width:0.231725;stroke-dasharray:0.926902, 0.231725;stroke-dashoffset:0;marker-start:url(#TriangleStart)"
       id="path7212"
       sodipodi:type="arc"
       sodipodi:cx="66.022728"
       sodipodi:cy="36.518066"
       sodipodi:rx="1.8801419"
       sodipodi:ry="3.3941853"
       sodipodi:start="5.0482692"
       sodipodi:end="3.6606679"
       sodipodi:open="true"
       sodipodi:arc-type="arc"
       d="m 66.642423,33.313546 a 1.8801419,3.3941853 0 0 1 1.260333,3.167117 1.8801419,3.3941853 0 0 1 -1.221363,3.21649 1.8801419,3.3941853 0 0 1 -2.090821,-0.980003 1.8801419,3.3941853 0 0 1 -0.20033,-3.882862" />
    <g
       inkscape:label=""
       transform="matrix(0.8560466,0,0,0.84783681,60.32531,24.626562)"
       id="g725" />
    <g
       inkscape:label=""
       transform="translate(59.973476,24.031966)"
       id="g591">
      <g
         clip-path="url(#clipPath4293)"
         id="g22"
         transform="matrix(0.298964,0,0,0.298964,-0.182181,0.0358383)">
        <g
           fill="#000000"
           fill-opacity="1"
           id="g20">
          <g
             id="use16"
             transform="translate(0,8.302)">
            <path
               d="m 2.71875,-2.390625 c 0.203125,0.03125 0.53125,0.109375 0.609375,0.125 0.15625,0.046875 0.6875,0.234375 0.6875,0.8125 0,0.359375 -0.328125,1.328125 -1.71875,1.328125 -0.25,0 -1.15625,-0.03125 -1.390625,-0.6875 C 1.390625,-0.75 1.625,-1.125 1.625,-1.390625 c 0,-0.25 -0.171875,-0.375 -0.40625,-0.375 -0.265625,0 -0.609375,0.203125 -0.609375,0.734375 0,0.703125 0.71875,1.15625 1.671875,1.15625 1.8125,0 2.359375,-1.34375 2.359375,-1.96875 0,-0.171875 0,-0.515625 -0.390625,-0.890625 C 3.953125,-3.03125 3.671875,-3.078125 3.03125,-3.21875 2.703125,-3.28125 2.1875,-3.390625 2.1875,-3.9375 c 0,-0.234375 0.21875,-1.09375 1.34375,-1.09375 0.515625,0 1,0.1875 1.125,0.625 -0.53125,0 -0.5625,0.453125 -0.5625,0.46875 0,0.25 0.234375,0.3125 0.34375,0.3125 0.171875,0 0.5,-0.125 0.5,-0.625 0,-0.5 -0.453125,-1.015625 -1.390625,-1.015625 -1.5625,0 -1.984375,1.21875 -1.984375,1.71875 0,0.90625 0.890625,1.09375 1.15625,1.15625 z m 0,0"
               id="path28" />
          </g>
          <g
             id="use18"
             transform="translate(5.5137382,8.302)">
            <path
               d="m 5.296875,-6.015625 c 0,-1.21875 -0.390625,-2.40625 -1.359375,-2.40625 -1.671875,0 -3.453125,3.515625 -3.453125,6.140625 0,0.546875 0.109375,2.40625 1.375,2.40625 1.625,0 3.4375,-3.421875 3.4375,-6.140625 z m -3.625,1.6875 c 0.1875,-0.703125 0.4375,-1.703125 0.90625,-2.5625 0.390625,-0.71875 0.8125,-1.28125 1.34375,-1.28125 0.390625,0 0.65625,0.328125 0.65625,1.484375 0,0.421875 -0.03125,1.015625 -0.375,2.359375 z m 2.4375,0.359375 C 3.8125,-2.796875 3.5625,-2.046875 3.125,-1.296875 2.78125,-0.6875 2.359375,-0.125 1.859375,-0.125 1.5,-0.125 1.1875,-0.40625 1.1875,-1.59375 c 0,-0.765625 0.203125,-1.578125 0.390625,-2.375 z m 0,0"
               id="path32" />
          </g>
        </g>
      </g>
    </g>
    <g
       inkscape:label=""
       transform="translate(52.73476,37.422639)"
       id="g716">
      <g
         clip-path="url(#clipPath1898)"
         id="g714"
         transform="matrix(0.298964,0,0,0.298964,-0.182181,0.0354647)">
        <g
           fill="#000000"
           fill-opacity="1"
           id="g712">
          <g
             id="g710"
             transform="translate(0,5.1469998)">
            <path
               d="m 2.71875,-2.390625 c 0.203125,0.03125 0.53125,0.109375 0.609375,0.125 0.15625,0.046875 0.6875,0.234375 0.6875,0.8125 0,0.359375 -0.328125,1.328125 -1.71875,1.328125 -0.25,0 -1.15625,-0.03125 -1.390625,-0.6875 C 1.390625,-0.75 1.625,-1.125 1.625,-1.390625 c 0,-0.25 -0.171875,-0.375 -0.40625,-0.375 -0.265625,0 -0.609375,0.203125 -0.609375,0.734375 0,0.703125 0.71875,1.15625 1.671875,1.15625 1.8125,0 2.359375,-1.34375 2.359375,-1.96875 0,-0.171875 0,-0.515625 -0.390625,-0.890625 C 3.953125,-3.03125 3.671875,-3.078125 3.03125,-3.21875 2.703125,-3.28125 2.1875,-3.390625 2.1875,-3.9375 c 0,-0.234375 0.21875,-1.09375 1.34375,-1.09375 0.515625,0 1,0.1875 1.125,0.625 -0.53125,0 -0.5625,0.453125 -0.5625,0.46875 0,0.25 0.234375,0.3125 0.34375,0.3125 0.171875,0 0.5,-0.125 0.5,-0.625 0,-0.5 -0.453125,-1.015625 -1.390625,-1.015625 -1.5625,0 -1.984375,1.21875 -1.984375,1.71875 0,0.90625 0.890625,1.09375 1.15625,1.15625 z m 0,0"
               id="path708" />
          </g>
        </g>
      </g>
    </g>
    <g
       inkscape:label=""
       transform="translate(47.589786,27.083792)"
       id="g853">
      <g
         clip-path="url(#clipPath3331)"
         id="g851"
         transform="matrix(0.298964,0,0,0.298964,-0.182181,0.0354647)">
        <g
           fill="#000000"
           fill-opacity="1"
           id="g849">
          <g
             id="g847"
             transform="translate(0,5.1469998)">
            <path
               d="m 2.71875,-2.390625 c 0.203125,0.03125 0.53125,0.109375 0.609375,0.125 0.15625,0.046875 0.6875,0.234375 0.6875,0.8125 0,0.359375 -0.328125,1.328125 -1.71875,1.328125 -0.25,0 -1.15625,-0.03125 -1.390625,-0.6875 C 1.390625,-0.75 1.625,-1.125 1.625,-1.390625 c 0,-0.25 -0.171875,-0.375 -0.40625,-0.375 -0.265625,0 -0.609375,0.203125 -0.609375,0.734375 0,0.703125 0.71875,1.15625 1.671875,1.15625 1.8125,0 2.359375,-1.34375 2.359375,-1.96875 0,-0.171875 0,-0.515625 -0.390625,-0.890625 C 3.953125,-3.03125 3.671875,-3.078125 3.03125,-3.21875 2.703125,-3.28125 2.1875,-3.390625 2.1875,-3.9375 c 0,-0.234375 0.21875,-1.09375 1.34375,-1.09375 0.515625,0 1,0.1875 1.125,0.625 -0.53125,0 -0.5625,0.453125 -0.5625,0.46875 0,0.25 0.234375,0.3125 0.34375,0.3125 0.171875,0 0.5,-0.125 0.5,-0.625 0,-0.5 -0.453125,-1.015625 -1.390625,-1.015625 -1.5625,0 -1.984375,1.21875 -1.984375,1.71875 0,0.90625 0.890625,1.09375 1.15625,1.15625 z m 0,0"
               id="path845" />
          </g>
        </g>
      </g>
    </g>
  </g>
</svg>
