<?xml version="1.0" encoding="UTF-8" standalone="no"?>
<!-- Created with Inkscape (http://www.inkscape.org/) -->

<svg
   width="86.361mm"
   height="70.181mm"
   viewBox="0 0 86.361 70.181"
   version="1.1"
   id="svg5"
   sodipodi:docname="curved_potential.svg"
   inkscape:version="1.2.2 (b0a8486541, 2022-12-01)"
   xmlns:inkscape="http://www.inkscape.org/namespaces/inkscape"
   xmlns:sodipodi="http://sodipodi.sourceforge.net/DTD/sodipodi-0.dtd"
   xmlns="http://www.w3.org/2000/svg"
   xmlns:svg="http://www.w3.org/2000/svg">
  <sodipodi:namedview
     id="namedview7"
     pagecolor="#ffffff"
     bordercolor="#000000"
     borderopacity="0.25"
     inkscape:showpageshadow="2"
     inkscape:pageopacity="0.0"
     inkscape:pagecheckerboard="0"
     inkscape:deskcolor="#d1d1d1"
     inkscape:document-units="mm"
     showgrid="false"
     inkscape:zoom="2.6920101"
     inkscape:cx="190.00672"
     inkscape:cy="134.65774"
     inkscape:window-width="2560"
     inkscape:window-height="1026"
     inkscape:window-x="0"
     inkscape:window-y="26"
     inkscape:window-maximized="1"
     inkscape:current-layer="layer1" />
  <defs
     id="defs2">
    <marker
       style="overflow:visible"
       id="TriangleStart"
       refX="0"
       refY="0"
       orient="auto-start-reverse"
       inkscape:stockid="TriangleStart"
       markerWidth="5.3244081"
       markerHeight="6.155385"
       viewBox="0 0 5.3244081 6.1553851"
       inkscape:isstock="true"
       inkscape:collect="always"
       preserveAspectRatio="xMidYMid">
      <path
         transform="scale(0.5)"
         style="fill:context-stroke;fill-rule:evenodd;stroke:context-stroke;stroke-width:1pt"
         d="M 5.77,0 -2.88,5 V -5 Z"
         id="path135" />
    </marker>
    <marker
       style="overflow:visible"
       id="marker1264"
       refX="0"
       refY="0"
       orient="auto-start-reverse"
       inkscape:stockid="TriangleStart"
       markerWidth="5.3244081"
       markerHeight="6.155385"
       viewBox="0 0 5.3244081 6.1553851"
       inkscape:isstock="true"
       inkscape:collect="always"
       preserveAspectRatio="xMidYMid">
      <path
         transform="scale(0.5)"
         style="fill:context-stroke;fill-rule:evenodd;stroke:context-stroke;stroke-width:1pt"
         d="M 5.77,0 -2.88,5 V -5 Z"
         id="path1262" />
    </marker>
    <clipPath
       id="clipPath7175">
      <path
         clip-rule="nonzero"
         d="M 0,2 H 9 V 13.28125 H 0 Z m 0,0"
         id="path2049" />
    </clipPath>
    <clipPath
       id="clipPath2932">
      <path
         clip-rule="nonzero"
         d="M 0,2 H 9 V 13.28125 H 0 Z m 0,0"
         id="path2133" />
    </clipPath>
    <clipPath
       id="clipPath4433">
      <path
         clip-rule="nonzero"
         d="M 39,0 H 67 V 10.628906 H 39 Z m 0,0"
         id="path8285" />
    </clipPath>
  </defs>
  <g
     inkscape:label="Layer 1"
     inkscape:groupmode="layer"
     id="layer1"
     transform="translate(-4.870428,-10.318114)">
    <circle
       style="fill:none;stroke:#000000;stroke-width:0.264999"
       id="path346"
       cx="61.657139"
       cy="39.892323"
       r="29.44171" />
    <path
       style="fill:none;stroke:#000000;stroke-width:0.264999;marker-start:url(#TriangleStart);marker-end:url(#marker1264)"
       d="M 31.136634,41.873574 H 4.870428 Z"
       id="path433" />
    <g
       inkscape:label=""
       transform="translate(16.53218,35.773217)"
       id="g1457">
      <g
         fill="#000000"
         fill-opacity="1"
         id="g1447"
         transform="matrix(0.352778,0,0,0.352778,-0.20395,0.00674687)">
        <g
           id="g1445"
           transform="translate(3.9849999,7.934)">
          <path
             d="m 2.203125,-7.359375 c 0,-0.359375 -0.296875,-0.59375 -0.578125,-0.59375 -0.328125,0 -0.578125,0.265625 -0.578125,0.59375 0,0.3125 0.25,0.5625 0.5625,0.5625 0.359375,0 0.59375,-0.28125 0.59375,-0.5625 z m 0,0"
             id="path1443" />
        </g>
      </g>
      <g
         clip-path="url(#clipPath2932)"
         id="g1455"
         transform="matrix(0.352778,0,0,0.352778,-0.20395,0.00674687)">
        <g
           fill="#000000"
           fill-opacity="1"
           id="g1453">
          <g
             id="g1451"
             transform="translate(0,10.956)">
            <path
               d="m 5.09375,-0.078125 c 2.046875,-0.8125 3.578125,-3 3.578125,-5.15625 0,-1.96875 -1.28125,-3.1875 -2.953125,-3.1875 -2.5625,0 -5.140625,2.75 -5.140625,5.515625 0,1.875 1.234375,3.15625 2.96875,3.15625 0.40625,0 0.796875,-0.0625 1.1875,-0.171875 -0.078125,0.703125 -0.078125,0.765625 -0.078125,1 0,0.34375 0,1.234375 0.96875,1.234375 1.421875,0 1.9375,-2.234375 1.9375,-2.296875 0,-0.078125 -0.046875,-0.125 -0.109375,-0.125 -0.0625,0 -0.09375,0.0625 -0.125,0.1875 C 7.0625,0.84375 6.4375,1.265625 5.921875,1.265625 5.3125,1.265625 5.15625,0.84375 5.09375,-0.078125 Z M 2.9375,-0.125 C 2,-0.453125 1.546875,-1.453125 1.546875,-2.546875 c 0,-0.828125 0.3125,-2.421875 1.09375,-3.640625 0.890625,-1.359375 2.0625,-1.96875 3,-1.96875 1.25,0 2.078125,1.015625 2.078125,2.5625 0,0.890625 -0.421875,3.84375 -2.65625,5.15625 C 5,-1.046875 4.828125,-1.75 4.046875,-1.75 c -0.65625,0 -1.203125,0.640625 -1.203125,1.21875 0,0.140625 0.046875,0.3125 0.09375,0.40625 z M 4.75,-0.28125 c -0.421875,0.203125 -0.796875,0.265625 -1.125,0.265625 -0.125,0 -0.546875,0 -0.546875,-0.515625 0,-0.4375 0.421875,-0.984375 0.96875,-0.984375 0.59375,0 0.71875,0.40625 0.71875,1 0,0.078125 0,0.171875 -0.015625,0.234375 z m 0,0"
               id="path1449" />
          </g>
        </g>
      </g>
    </g>
    <path
       style="fill:none;stroke:#000000;stroke-width:0.264999;stroke-dasharray:0.264999, 0.53;stroke-dashoffset:0"
       d="M 48.934496,13.001221 Z"
       id="path2043" />
    <path
       style="fill:none;stroke:#000000;stroke-width:0.264999;stroke-dasharray:0.264999, 0.529997;stroke-dashoffset:0"
       d="M 8.2929933,78.416371 H 21.271008 Z"
       id="path2052" />
    <g
       inkscape:label=""
       transform="translate(23.915362,76.712712)"
       id="g4035">
      <g
         fill="#000000"
         fill-opacity="1"
         id="g54"
         transform="matrix(0.352778,0,0,0.352778,-0.170877,0.0422892)">
        <g
           id="use46"
           transform="translate(0,8.302)">
          <path
             d="M 6.8125,-3.0625 H 6.546875 C 6.4375,-1.859375 6.28125,-0.34375 4.1875,-0.34375 H 3.140625 C 2.625,-0.34375 2.59375,-0.4375 2.59375,-0.828125 V -7.25 c 0,-0.421875 0.03125,-0.5625 1.0625,-0.5625 h 0.359375 v -0.34375 c -0.34375,0.015625 -1.390625,0.015625 -1.8125,0.015625 -0.359375,0 -1.421875,0 -1.71875,-0.015625 v 0.34375 h 0.25 C 1.59375,-7.8125 1.625,-7.703125 1.625,-7.25 v 6.34375 c 0,0.4375 -0.03125,0.5625 -0.890625,0.5625 h -0.25 V 0 H 6.5 Z m 0,0"
             id="path100" />
        </g>
        <g
           id="use48"
           transform="translate(7.3141909,8.302)">
          <path
             d="m 2.078125,-7.359375 c 0,-0.3125 -0.25,-0.59375 -0.578125,-0.59375 -0.3125,0 -0.578125,0.25 -0.578125,0.578125 0,0.359375 0.28125,0.578125 0.578125,0.578125 0.359375,0 0.578125,-0.296875 0.578125,-0.5625 z M 0.4375,-5.140625 v 0.34375 c 0.75,0 0.859375,0.078125 0.859375,0.65625 v 3.25 c 0,0.546875 -0.125,0.546875 -0.90625,0.546875 V 0 c 0.34375,-0.03125 0.90625,-0.03125 1.265625,-0.03125 0.125,0 0.8125,0 1.21875,0.03125 v -0.34375 c -0.765625,0 -0.8125,-0.0625 -0.8125,-0.53125 v -4.390625 z m 0,0"
             id="path104" />
        </g>
        <g
           id="use50"
           transform="translate(10.566006,8.302)">
          <path
             d="m 5.3125,-2.90625 c 0,-1.109375 0,-1.4375 -0.265625,-1.828125 -0.34375,-0.46875 -0.90625,-0.53125 -1.3125,-0.53125 -1.171875,0 -1.625,0.984375 -1.71875,1.21875 v -1.21875 l -1.640625,0.125 v 0.34375 c 0.8125,0 0.921875,0.09375 0.921875,0.671875 v 3.234375 c 0,0.546875 -0.140625,0.546875 -0.921875,0.546875 V 0 c 0.3125,-0.03125 0.96875,-0.03125 1.296875,-0.03125 0.34375,0 1,0 1.296875,0.03125 v -0.34375 c -0.75,0 -0.90625,0 -0.90625,-0.546875 v -2.21875 c 0,-1.25 0.828125,-1.921875 1.578125,-1.921875 0.734375,0 0.90625,0.609375 0.90625,1.34375 v 2.796875 c 0,0.546875 -0.140625,0.546875 -0.90625,0.546875 V 0 c 0.296875,-0.03125 0.953125,-0.03125 1.28125,-0.03125 0.34375,0 1,0 1.3125,0.03125 v -0.34375 c -0.609375,0 -0.90625,0 -0.921875,-0.359375 z m 0,0"
             id="path108" />
        </g>
        <g
           id="use52"
           transform="translate(17.069635,8.302)">
          <path
             d="m 4.578125,-2.765625 c 0.265625,0 0.28125,0 0.28125,-0.234375 0,-1.203125 -0.640625,-2.328125 -2.09375,-2.328125 -1.359375,0 -2.40625,1.234375 -2.40625,2.703125 0,1.578125 1.21875,2.75 2.546875,2.75 1.421875,0 1.953125,-1.296875 1.953125,-1.546875 0,-0.078125 -0.046875,-0.125 -0.125,-0.125 -0.09375,0 -0.125,0.0625 -0.140625,0.125 -0.3125,1 -1.109375,1.28125 -1.625,1.28125 -0.5,0 -1.703125,-0.34375 -1.703125,-2.40625 v -0.21875 z M 1.28125,-3 c 0.09375,-1.875 1.140625,-2.09375 1.484375,-2.09375 1.28125,0 1.34375,1.6875 1.359375,2.09375 z m 0,0"
             id="path112" />
        </g>
      </g>
      <g
         fill="#000000"
         fill-opacity="1"
         id="g60"
         transform="matrix(0.352778,0,0,0.352778,-0.170877,0.0422892)">
        <g
           id="use56"
           transform="translate(26.169933,8.302)">
          <path
             d="m 5.484375,-2.5625 c 0,-1.53125 -1.171875,-2.765625 -2.5625,-2.765625 -1.421875,0 -2.5625,1.265625 -2.5625,2.765625 0,1.53125 1.1875,2.6875 2.5625,2.6875 1.40625,0 2.5625,-1.171875 2.5625,-2.6875 z m -2.5625,2.421875 c -0.4375,0 -0.96875,-0.1875 -1.3125,-0.78125 -0.328125,-0.53125 -0.34375,-1.234375 -0.34375,-1.75 0,-0.453125 0,-1.171875 0.375,-1.71875 C 1.96875,-4.90625 2.5,-5.09375 2.921875,-5.09375 c 0.453125,0 0.96875,0.21875 1.28125,0.6875 0.375,0.546875 0.375,1.296875 0.375,1.734375 0,0.421875 0,1.171875 -0.3125,1.734375 C 3.9375,-0.375 3.375,-0.140625 2.921875,-0.140625 Z m 0,0"
             id="path116" />
        </g>
        <g
           id="use58"
           transform="translate(32.023197,8.302)">
          <path
             d="m 2.0625,-4.8125 h 1.34375 v -0.34375 h -1.375 v -1.390625 c 0,-1.078125 0.546875,-1.625 1.046875,-1.625 0.09375,0 0.265625,0.015625 0.40625,0.09375 -0.046875,0.015625 -0.34375,0.125 -0.34375,0.46875 0,0.265625 0.1875,0.46875 0.46875,0.46875 0.28125,0 0.484375,-0.203125 0.484375,-0.484375 0,-0.4375 -0.4375,-0.796875 -1.015625,-0.796875 -0.828125,0 -1.78125,0.65625 -1.78125,1.875 V -5.15625 H 0.375 v 0.34375 h 0.921875 v 3.921875 c 0,0.546875 -0.125,0.546875 -0.90625,0.546875 V 0 c 0.34375,-0.03125 1,-0.03125 1.359375,-0.03125 0.3125,0 1.171875,0 1.4375,0.03125 V -0.34375 H 2.953125 c -0.875,0 -0.890625,-0.140625 -0.890625,-0.5625 z m 0,0"
             id="path120" />
        </g>
      </g>
      <g
         clip-path="url(#clipPath4433)"
         id="g74"
         transform="matrix(0.352778,0,0,0.352778,-0.170877,0.0422892)">
        <g
           fill="#000000"
           fill-opacity="1"
           id="g72">
          <g
             id="use62"
             transform="translate(39.509544,8.302)">
            <path
               d="m 4.578125,-2.765625 c 0.265625,0 0.28125,0 0.28125,-0.234375 0,-1.203125 -0.640625,-2.328125 -2.09375,-2.328125 -1.359375,0 -2.40625,1.234375 -2.40625,2.703125 0,1.578125 1.21875,2.75 2.546875,2.75 1.421875,0 1.953125,-1.296875 1.953125,-1.546875 0,-0.078125 -0.046875,-0.125 -0.125,-0.125 -0.09375,0 -0.125,0.0625 -0.140625,0.125 -0.3125,1 -1.109375,1.28125 -1.625,1.28125 -0.5,0 -1.703125,-0.34375 -1.703125,-2.40625 v -0.21875 z M 1.28125,-3 c 0.09375,-1.875 1.140625,-2.09375 1.484375,-2.09375 1.28125,0 1.34375,1.6875 1.359375,2.09375 z m 0,0"
               id="path124" />
          </g>
          <g
             id="use64"
             transform="translate(44.712448,8.302)">
            <path
               d="M 5.25,-5.265625 H 5.015625 L 4.5625,-4.15625 C 4.34375,-4.609375 3.890625,-5.265625 2.96875,-5.265625 c -1.3125,0 -2.546875,1.125 -2.546875,2.703125 0,1.515625 1.140625,2.6875 2.453125,2.6875 0.640625,0 1.171875,-0.296875 1.59375,-0.90625 V 1.4375 c 0,0.53125 -0.125,0.53125 -0.90625,0.53125 V 2.3125 C 3.875,2.296875 4.515625,2.296875 4.859375,2.296875 c 0.34375,0 0.984375,0 1.296875,0.015625 V 1.96875 c -0.765625,0 -0.90625,0 -0.90625,-0.53125 z M 4.5,-1.609375 C 4.5,-1.21875 4.28125,-0.875 4,-0.59375 3.578125,-0.15625 3.125,-0.125 2.9375,-0.125 2.03125,-0.125 1.328125,-1.25 1.328125,-2.5625 1.328125,-4 2.15625,-5.015625 3.046875,-5.015625 4,-5.015625 4.5,-3.984375 4.5,-3.359375 Z m 0,0"
               id="path128" />
          </g>
          <g
             id="use66"
             transform="translate(50.890896,8.302)">
            <path
               d="m 3.640625,-5.140625 v 0.34375 c 0.8125,0 0.90625,0.09375 0.90625,0.671875 v 2.140625 C 4.546875,-0.96875 4,-0.125 3.109375,-0.125 2.125,-0.125 2.0625,-0.6875 2.0625,-1.3125 v -3.953125 l -1.6875,0.125 v 0.34375 c 0.921875,0 0.921875,0.046875 0.921875,1.109375 v 1.78125 c 0,0.75 0,1.171875 0.359375,1.578125 C 1.9375,-0.03125 2.421875,0.125 3.03125,0.125 c 0.203125,0 0.59375,0 1,-0.359375 C 4.375,-0.5 4.5625,-0.953125 4.5625,-0.953125 V 0.125 L 6.234375,0 v -0.34375 c -0.8125,0 -0.921875,-0.09375 -0.921875,-0.671875 v -4.25 z m 0,0"
               id="path132" />
          </g>
          <g
             id="use68"
             transform="translate(57.394524,8.302)">
            <path
               d="m 2.078125,-7.359375 c 0,-0.3125 -0.25,-0.59375 -0.578125,-0.59375 -0.3125,0 -0.578125,0.25 -0.578125,0.578125 0,0.359375 0.28125,0.578125 0.578125,0.578125 0.359375,0 0.578125,-0.296875 0.578125,-0.5625 z M 0.4375,-5.140625 v 0.34375 c 0.75,0 0.859375,0.078125 0.859375,0.65625 v 3.25 c 0,0.546875 -0.125,0.546875 -0.90625,0.546875 V 0 c 0.34375,-0.03125 0.90625,-0.03125 1.265625,-0.03125 0.125,0 0.8125,0 1.21875,0.03125 v -0.34375 c -0.765625,0 -0.8125,-0.0625 -0.8125,-0.53125 v -4.390625 z m 0,0"
               id="path136" />
          </g>
          <g
             id="use70"
             transform="translate(60.646339,8.302)">
            <path
               d="m 2.921875,1.96875 c -0.765625,0 -0.90625,0 -0.90625,-0.53125 V -0.640625 C 2.234375,-0.34375 2.71875,0.125 3.484375,0.125 c 1.375,0 2.59375,-1.171875 2.59375,-2.703125 0,-1.515625 -1.125,-2.6875 -2.4375,-2.6875 -1.046875,0 -1.609375,0.75 -1.640625,0.796875 v -0.796875 l -1.671875,0.125 v 0.34375 c 0.84375,0 0.921875,0.09375 0.921875,0.609375 v 5.625 c 0,0.53125 -0.140625,0.53125 -0.921875,0.53125 V 2.3125 C 0.640625,2.296875 1.296875,2.296875 1.625,2.296875 c 0.34375,0 1,0 1.296875,0.015625 z M 2.015625,-3.8125 c 0,-0.234375 0,-0.234375 0.140625,-0.4375 0.359375,-0.53125 0.9375,-0.765625 1.390625,-0.765625 0.90625,0 1.609375,1.09375 1.609375,2.4375 0,1.421875 -0.8125,2.453125 -1.71875,2.453125 -0.375,0 -0.71875,-0.15625 -0.96875,-0.375 C 2.203125,-0.78125 2.015625,-1.015625 2.015625,-1.34375 Z m 0,0"
               id="path140" />
          </g>
        </g>
      </g>
      <g
         fill="#000000"
         fill-opacity="1"
         id="g84"
         transform="matrix(0.352778,0,0,0.352778,-0.170877,0.0422892)">
        <g
           id="use76"
           transform="translate(67.472755,8.302)">
          <path
             d="m 5.484375,-2.5625 c 0,-1.53125 -1.171875,-2.765625 -2.5625,-2.765625 -1.421875,0 -2.5625,1.265625 -2.5625,2.765625 0,1.53125 1.1875,2.6875 2.5625,2.6875 1.40625,0 2.5625,-1.171875 2.5625,-2.6875 z m -2.5625,2.421875 c -0.4375,0 -0.96875,-0.1875 -1.3125,-0.78125 -0.328125,-0.53125 -0.34375,-1.234375 -0.34375,-1.75 0,-0.453125 0,-1.171875 0.375,-1.71875 C 1.96875,-4.90625 2.5,-5.09375 2.921875,-5.09375 c 0.453125,0 0.96875,0.21875 1.28125,0.6875 0.375,0.546875 0.375,1.296875 0.375,1.734375 0,0.421875 0,1.171875 -0.3125,1.734375 C 3.9375,-0.375 3.375,-0.140625 2.921875,-0.140625 Z m 0,0"
             id="path144" />
        </g>
        <g
           id="use78"
           transform="translate(73.326027,8.302)">
          <path
             d="M 2.015625,-4.8125 H 3.6875 V -5.15625 H 2.015625 v -2.1875 H 1.75 C 1.734375,-6.234375 1.296875,-5.078125 0.21875,-5.046875 V -4.8125 h 1.015625 v 3.328125 c 0,1.328125 0.875,1.609375 1.515625,1.609375 0.75,0 1.140625,-0.75 1.140625,-1.609375 V -2.15625 h -0.25 V -1.5 c 0,0.859375 -0.359375,1.359375 -0.8125,1.359375 -0.8125,0 -0.8125,-1.109375 -0.8125,-1.3125 z m 0,0"
             id="path148" />
        </g>
        <g
           id="use80"
           transform="translate(77.878563,8.302)">
          <path
             d="m 4.578125,-2.765625 c 0.265625,0 0.28125,0 0.28125,-0.234375 0,-1.203125 -0.640625,-2.328125 -2.09375,-2.328125 -1.359375,0 -2.40625,1.234375 -2.40625,2.703125 0,1.578125 1.21875,2.75 2.546875,2.75 1.421875,0 1.953125,-1.296875 1.953125,-1.546875 0,-0.078125 -0.046875,-0.125 -0.125,-0.125 -0.09375,0 -0.125,0.0625 -0.140625,0.125 -0.3125,1 -1.109375,1.28125 -1.625,1.28125 -0.5,0 -1.703125,-0.34375 -1.703125,-2.40625 v -0.21875 z M 1.28125,-3 c 0.09375,-1.875 1.140625,-2.09375 1.484375,-2.09375 1.28125,0 1.34375,1.6875 1.359375,2.09375 z m 0,0"
             id="path152" />
        </g>
        <g
           id="use82"
           transform="translate(83.081467,8.302)">
          <path
             d="m 5.3125,-2.90625 c 0,-1.109375 0,-1.4375 -0.265625,-1.828125 -0.34375,-0.46875 -0.90625,-0.53125 -1.3125,-0.53125 -1.171875,0 -1.625,0.984375 -1.71875,1.21875 v -1.21875 l -1.640625,0.125 v 0.34375 c 0.8125,0 0.921875,0.09375 0.921875,0.671875 v 3.234375 c 0,0.546875 -0.140625,0.546875 -0.921875,0.546875 V 0 c 0.3125,-0.03125 0.96875,-0.03125 1.296875,-0.03125 0.34375,0 1,0 1.296875,0.03125 v -0.34375 c -0.75,0 -0.90625,0 -0.90625,-0.546875 v -2.21875 c 0,-1.25 0.828125,-1.921875 1.578125,-1.921875 0.734375,0 0.90625,0.609375 0.90625,1.34375 v 2.796875 c 0,0.546875 -0.140625,0.546875 -0.90625,0.546875 V 0 c 0.296875,-0.03125 0.953125,-0.03125 1.28125,-0.03125 0.34375,0 1,0 1.3125,0.03125 v -0.34375 c -0.609375,0 -0.90625,0 -0.921875,-0.359375 z m 0,0"
             id="path156" />
        </g>
      </g>
      <g
         fill="#000000"
         fill-opacity="1"
         id="g94"
         transform="matrix(0.352778,0,0,0.352778,-0.170877,0.0422892)">
        <g
           id="use86"
           transform="translate(89.250351,8.302)">
          <path
             d="M 2.015625,-4.8125 H 3.6875 V -5.15625 H 2.015625 v -2.1875 H 1.75 C 1.734375,-6.234375 1.296875,-5.078125 0.21875,-5.046875 V -4.8125 h 1.015625 v 3.328125 c 0,1.328125 0.875,1.609375 1.515625,1.609375 0.75,0 1.140625,-0.75 1.140625,-1.609375 V -2.15625 h -0.25 V -1.5 c 0,0.859375 -0.359375,1.359375 -0.8125,1.359375 -0.8125,0 -0.8125,-1.109375 -0.8125,-1.3125 z m 0,0"
             id="path160" />
        </g>
        <g
           id="use88"
           transform="translate(93.802887,8.302)">
          <path
             d="m 2.078125,-7.359375 c 0,-0.3125 -0.25,-0.59375 -0.578125,-0.59375 -0.3125,0 -0.578125,0.25 -0.578125,0.578125 0,0.359375 0.28125,0.578125 0.578125,0.578125 0.359375,0 0.578125,-0.296875 0.578125,-0.5625 z M 0.4375,-5.140625 v 0.34375 c 0.75,0 0.859375,0.078125 0.859375,0.65625 v 3.25 c 0,0.546875 -0.125,0.546875 -0.90625,0.546875 V 0 c 0.34375,-0.03125 0.90625,-0.03125 1.265625,-0.03125 0.125,0 0.8125,0 1.21875,0.03125 v -0.34375 c -0.765625,0 -0.8125,-0.0625 -0.8125,-0.53125 v -4.390625 z m 0,0"
             id="path164" />
        </g>
        <g
           id="use90"
           transform="translate(97.054703,8.302)">
          <path
             d="m 4.609375,-3.1875 c 0,-0.65625 0,-1.125 -0.515625,-1.59375 C 3.671875,-5.15625 3.125,-5.328125 2.609375,-5.328125 1.625,-5.328125 0.875,-4.6875 0.875,-3.90625 c 0,0.34375 0.21875,0.515625 0.5,0.515625 0.28125,0 0.484375,-0.203125 0.484375,-0.5 C 1.859375,-4.375 1.4375,-4.375 1.25,-4.375 c 0.28125,-0.5 0.859375,-0.71875 1.328125,-0.71875 0.546875,0 1.265625,0.453125 1.265625,1.53125 v 0.484375 c -2.40625,0.03125 -3.3125,1.03125 -3.3125,1.953125 0,0.953125 1.09375,1.25 1.828125,1.25 0.78125,0 1.328125,-0.484375 1.546875,-1.0625 0.046875,0.5625 0.421875,1 0.9375,1 0.25,0 0.9375,-0.171875 0.9375,-1.125 V -1.734375 H 5.515625 V -1.0625 c 0,0.6875 -0.28125,0.78125 -0.453125,0.78125 -0.453125,0 -0.453125,-0.640625 -0.453125,-0.8125 z m -0.765625,1.5 c 0,1.171875 -0.875,1.5625 -1.390625,1.5625 -0.59375,0 -1.078125,-0.421875 -1.078125,-1 0,-1.578125 2.03125,-1.71875 2.46875,-1.75 z m 0,0"
             id="path168" />
        </g>
        <g
           id="use92"
           transform="translate(102.90797,8.302)">
          <path
             d="M 2.0625,-8.296875 0.390625,-8.15625 v 0.34375 c 0.8125,0 0.90625,0.078125 0.90625,0.671875 v 6.25 c 0,0.546875 -0.125,0.546875 -0.90625,0.546875 V 0 c 0.34375,-0.03125 0.921875,-0.03125 1.28125,-0.03125 0.359375,0 0.953125,0 1.296875,0.03125 v -0.34375 c -0.765625,0 -0.90625,0 -0.90625,-0.546875 z m 0,0"
             id="path172" />
        </g>
      </g>
    </g>
    <path
       style="fill:none;stroke:#000000;stroke-width:0.264583;stroke-dasharray:0.529167, 0.264583;stroke-dashoffset:0"
       id="path466"
       sodipodi:type="arc"
       sodipodi:cx="32.402229"
       sodipodi:cy="41.857773"
       sodipodi:rx="5.1041207"
       sodipodi:ry="4.9847531"
       sodipodi:start="4.7641802"
       sodipodi:end="1.46578"
       sodipodi:arc-type="arc"
       d="m 32.66646,36.879704 a 5.1041207,4.9847531 0 0 1 4.838083,4.845427 5.1041207,4.9847531 0 0 1 -4.567282,5.089933"
       sodipodi:open="true" />
    <path
       style="fill:none;stroke:#000000;stroke-width:0.264583;stroke-dasharray:0.529167, 0.264583;stroke-dashoffset:0"
       id="path466-3"
       sodipodi:type="arc"
       sodipodi:cx="33.244884"
       sodipodi:cy="41.192558"
       sodipodi:rx="10.250384"
       sodipodi:ry="10.010663"
       sodipodi:start="4.7641802"
       sodipodi:end="1.46578"
       sodipodi:arc-type="arc"
       d="m 33.775527,31.195318 a 10.250384,10.010663 0 0 1 9.716112,9.730862 10.250384,10.010663 0 0 1 -9.172274,10.221891"
       sodipodi:open="true" />
    <path
       style="fill:none;stroke:#000000;stroke-width:0.264583;stroke-dasharray:0.529167, 0.264583;stroke-dashoffset:0"
       id="path466-3-6"
       sodipodi:type="arc"
       sodipodi:cx="36.298866"
       sodipodi:cy="40.413738"
       sodipodi:rx="16.827513"
       sodipodi:ry="16.433975"
       sodipodi:start="4.7641802"
       sodipodi:end="1.46578"
       sodipodi:arc-type="arc"
       d="M 37.169994,24.001799 A 16.827513,16.433975 0 0 1 53.120421,39.97644 16.827513,16.433975 0 0 1 38.062783,56.757176"
       sodipodi:open="true" />
    <path
       style="fill:none;stroke:#000000;stroke-width:0.36043;stroke-dasharray:0.720863, 0.36043;stroke-dashoffset:0"
       id="path466-3-6-7"
       sodipodi:type="arc"
       sodipodi:cx="40.60804"
       sodipodi:cy="40.64587"
       sodipodi:rx="22.923437"
       sodipodi:ry="22.387339"
       sodipodi:start="4.7641802"
       sodipodi:end="1.46578"
       sodipodi:arc-type="arc"
       d="M 41.794742,18.28855 A 22.923437,22.387339 0 0 1 63.52336,40.050156 22.923437,22.387339 0 0 1 43.010953,62.909874"
       sodipodi:open="true" />
  </g>
</svg>
