<?xml version="1.0" encoding="UTF-8" standalone="no"?>
<!-- Created with Inkscape (http://www.inkscape.org/) -->

<svg
   width="59.148418mm"
   height="59.148418mm"
   viewBox="0 0 59.148418 59.148419"
   version="1.1"
   id="svg5"
   sodipodi:docname="straight_potential_derivation.svg"
   inkscape:version="1.2.1 (9c6d41e410, 2022-07-14, custom)"
   xmlns:inkscape="http://www.inkscape.org/namespaces/inkscape"
   xmlns:sodipodi="http://sodipodi.sourceforge.net/DTD/sodipodi-0.dtd"
   xmlns="http://www.w3.org/2000/svg"
   xmlns:svg="http://www.w3.org/2000/svg">
  <sodipodi:namedview
     id="namedview7"
     pagecolor="#ffffff"
     bordercolor="#000000"
     borderopacity="0.25"
     inkscape:showpageshadow="2"
     inkscape:pageopacity="0.0"
     inkscape:pagecheckerboard="0"
     inkscape:deskcolor="#d1d1d1"
     inkscape:document-units="mm"
     showgrid="false"
     inkscape:zoom="3.011083"
     inkscape:cx="114.07856"
     inkscape:cy="136.32969"
     inkscape:window-width="1920"
     inkscape:window-height="1026"
     inkscape:window-x="0"
     inkscape:window-y="26"
     inkscape:window-maximized="1"
     inkscape:current-layer="layer1" />
  <defs
     id="defs2">
    <marker
       style="overflow:visible"
       id="marker3938"
       refX="0"
       refY="0"
       orient="auto-start-reverse"
       inkscape:stockid="TriangleStart"
       markerWidth="5.3244081"
       markerHeight="6.155385"
       viewBox="0 0 5.3244081 6.1553851"
       inkscape:isstock="true"
       inkscape:collect="always"
       preserveAspectRatio="xMidYMid">
      <path
         transform="scale(0.5)"
         style="fill:context-stroke;fill-rule:evenodd;stroke:context-stroke;stroke-width:1pt"
         d="M 5.77,0 -2.88,5 V -5 Z"
         id="path3936" />
    </marker>
    <marker
       style="overflow:visible"
       id="marker3874"
       refX="0"
       refY="0"
       orient="auto-start-reverse"
       inkscape:stockid="TriangleStart"
       markerWidth="5.3244081"
       markerHeight="6.155385"
       viewBox="0 0 5.3244081 6.1553851"
       inkscape:isstock="true"
       inkscape:collect="always"
       preserveAspectRatio="xMidYMid">
      <path
         transform="scale(0.5)"
         style="fill:context-stroke;fill-rule:evenodd;stroke:context-stroke;stroke-width:1pt"
         d="M 5.77,0 -2.88,5 V -5 Z"
         id="path3872" />
    </marker>
    <marker
       style="overflow:visible"
       id="TriangleStart"
       refX="0"
       refY="0"
       orient="auto-start-reverse"
       inkscape:stockid="TriangleStart"
       markerWidth="5.3244081"
       markerHeight="6.155385"
       viewBox="0 0 5.3244081 6.1553851"
       inkscape:isstock="true"
       inkscape:collect="always"
       preserveAspectRatio="xMidYMid">
      <path
         transform="scale(0.5)"
         style="fill:context-stroke;fill-rule:evenodd;stroke:context-stroke;stroke-width:1pt"
         d="M 5.77,0 -2.88,5 V -5 Z"
         id="path135" />
    </marker>
    <clipPath
       id="clipPath7175">
      <path
         clip-rule="nonzero"
         d="M 0,2 H 9 V 13.28125 H 0 Z m 0,0"
         id="path2049" />
    </clipPath>
    <clipPath
       id="clipPath2932">
      <path
         clip-rule="nonzero"
         d="M 0,2 H 9 V 13.28125 H 0 Z m 0,0"
         id="path2133" />
    </clipPath>
    <clipPath
       id="clipPath4433">
      <path
         clip-rule="nonzero"
         d="M 39,0 H 67 V 10.628906 H 39 Z m 0,0"
         id="path8285" />
    </clipPath>
    <clipPath
       id="clipPath2609">
      <path
         clip-rule="nonzero"
         d="M 0,0 H 5.976562 V 5 H 0 Z m 0,0"
         id="path6854" />
    </clipPath>
    <marker
       markerWidth="84.175335"
       markerHeight="11.6322"
       refX="42.087668"
       refY="5.8161001"
       orient="auto"
       id="marker18590">
      <path
         style="fill:none;stroke:#000000;stroke-width:1.88976;stroke-dasharray:none;stroke-dashoffset:0;marker-start:url(#TriangleStart);marker-end:url(#TriangleStart)"
         d="M 6.7106789,5.8161001 H 84.175335 Z"
         id="path17796" />
    </marker>
    <clipPath
       id="clipPath4380">
      <path
         clip-rule="nonzero"
         d="M 0,0 H 6.738281 V 8.300781 H 0 Z m 0,0"
         id="path8808" />
    </clipPath>
    <clipPath
       id="clipPath2123">
      <path
         clip-rule="nonzero"
         d="M 0,1 H 6 V 7.96875 H 0 Z m 0,0"
         id="path207" />
    </clipPath>
    <clipPath
       id="clipPath5268">
      <path
         clip-rule="nonzero"
         d="m 20,1 h 6.863281 V 7.96875 H 20 Z m 0,0"
         id="path8020" />
    </clipPath>
  </defs>
  <g
     inkscape:label="Layer 1"
     inkscape:groupmode="layer"
     id="layer1"
     transform="translate(-32.0829, -10.3181)">
    <path
       id="path346"
       style="fill:none;stroke:#000000;stroke-width:0.264999"
       d="M 91.098848,39.892323 A 29.44171,29.44171 0 0 1 61.657139,69.334032 29.44171,29.44171 0 0 1 32.215429,39.892323 29.44171,29.44171 0 0 1 61.657139,10.450613 29.44171,29.44171 0 0 1 91.098848,39.892323 Z" />
    <path
       style="fill:none;stroke:#000000;stroke-width:0.264999;stroke-dasharray:0.264999, 0.53;stroke-dashoffset:0"
       d="M 48.934496,13.001221 Z"
       id="path2043" />
    <g
       inkscape:label=""
       transform="translate(60.799654,39.066591)"
       id="g15017">
      <g
         clip-path="url(#clipPath2609)"
         id="g17"
         transform="matrix(0.352778,0,0,0.352778,-0.23151,-1.7646e-4)">
        <g
           fill="#000000"
           fill-opacity="1"
           id="g15">
          <g
             id="use13"
             transform="translate(0,5.3130002)">
            <path
               d="m 5.3125,-2.984375 c 0,-1.28125 -1.0625,-2.328125 -2.328125,-2.328125 -1.28125,0 -2.328125,1.0625 -2.328125,2.328125 0,1.265625 1.046875,2.3125 2.328125,2.3125 1.265625,0 2.328125,-1.03125 2.328125,-2.3125 z m 0,0"
               id="path23" />
          </g>
        </g>
      </g>
    </g>
    <path
       style="fill:none;stroke:#000000;stroke-width:0.499999;stroke-dasharray:0.499999, 1.5;stroke-dashoffset:0"
       d="M 61.667586,39.912555 H 32.231603 Z"
       id="path15028" />
    <path
       style="fill:none;stroke:#000000;stroke-width:0.499999;stroke-dasharray:0.499999, 1.5;stroke-dashoffset:0"
       d="M 43.120336,17.239957 Z"
       id="path15756" />
    <path
       style="fill:none;stroke:#000000;stroke-width:0.499999;stroke-dasharray:none;stroke-dashoffset:0"
       d="M 41.280927,40.02463 V 18.842696 Z"
       id="path15758" />
    <path
       style="fill:none;stroke:#000000;stroke-width:0.460878;stroke-dasharray:none;stroke-dashoffset:0;marker-end:url(#TriangleStart)"
       d="m 39.788388,42.888138 h -7.55618 z"
       id="path15760" />
    <path
       style="fill:none;stroke:#000000;stroke-width:0.469133;marker-start:url(#marker3874);marker-end:url(#marker3938)"
       d="M 42.800626,42.866085 H 60.133644"
       id="path3870" />
    <path
       style="fill:none;stroke:#000000;stroke-width:0.477032;stroke-dasharray:3.81625, 0.477032;stroke-dashoffset:0;marker-end:url(#marker3874)"
       d="M 61.907819,39.992078 42.317869,20.117296"
       id="path4038" />
    <g
       inkscape:label=""
       transform="translate(34.794081,43.993716)"
       id="g4552">
      <g
         fill="#000000"
         fill-opacity="1"
         id="g12"
         transform="matrix(0.352778,0,0,0.352778,-0.115755,0.0418483)">
        <g
           id="use10"
           transform="translate(0,5.1469998)">
          <path
             d="m 5.671875,-4.875 c -0.390625,0.0625 -0.53125,0.359375 -0.53125,0.578125 0,0.296875 0.21875,0.390625 0.390625,0.390625 0.359375,0 0.609375,-0.3125 0.609375,-0.640625 0,-0.5 -0.578125,-0.71875 -1.078125,-0.71875 -0.71875,0 -1.125,0.71875 -1.234375,0.9375 -0.28125,-0.890625 -1.015625,-0.9375 -1.234375,-0.9375 -1.21875,0 -1.859375,1.5625 -1.859375,1.828125 0,0.046875 0.046875,0.109375 0.125,0.109375 0.09375,0 0.125,-0.078125 0.140625,-0.125 0.40625,-1.328125 1.21875,-1.578125 1.5625,-1.578125 0.53125,0 0.640625,0.5 0.640625,0.78125 0,0.265625 -0.078125,0.546875 -0.21875,1.125 L 2.578125,-1.5 c -0.171875,0.71875 -0.515625,1.375 -1.15625,1.375 -0.0625,0 -0.359375,0 -0.609375,-0.15625 C 1.25,-0.359375 1.34375,-0.71875 1.34375,-0.859375 1.34375,-1.09375 1.15625,-1.25 0.9375,-1.25 c -0.296875,0 -0.609375,0.265625 -0.609375,0.640625 0,0.5 0.5625,0.734375 1.078125,0.734375 0.578125,0 0.984375,-0.453125 1.234375,-0.953125 C 2.828125,-0.125 3.4375,0.125 3.875,0.125 5.09375,0.125 5.734375,-1.453125 5.734375,-1.703125 5.734375,-1.765625 5.6875,-1.8125 5.625,-1.8125 5.515625,-1.8125 5.5,-1.75 5.46875,-1.65625 5.140625,-0.609375 4.453125,-0.125 3.90625,-0.125 3.484375,-0.125 3.265625,-0.4375 3.265625,-0.921875 3.265625,-1.1875 3.3125,-1.375 3.5,-2.15625 L 3.921875,-3.796875 C 4.09375,-4.5 4.5,-5.03125 5.0625,-5.03125 c 0.015625,0 0.359375,0 0.609375,0.15625 z m 0,0"
             id="path18" />
        </g>
      </g>
    </g>
    <g
       inkscape:label=""
       transform="translate(38.411227,28.86244)"
       id="g5458">
      <g
         clip-path="url(#clipPath4380)"
         id="g5456"
         transform="matrix(0.352778,0,0,0.352778,-0.23151,-0.001808)">
        <g
           fill="#000000"
           fill-opacity="1"
           id="g5454">
          <g
             id="g5452"
             transform="translate(0,8.302)">
            <path
               d="m 3.359375,-8 c 0.015625,-0.046875 0.03125,-0.109375 0.03125,-0.171875 0,-0.125 -0.109375,-0.125 -0.140625,-0.125 -0.015625,0 -0.59375,0.046875 -0.65625,0.0625 C 2.390625,-8.21875 2.21875,-8.203125 2,-8.1875 c -0.296875,0.03125 -0.390625,0.03125 -0.390625,0.25 0,0.125 0.09375,0.125 0.265625,0.125 0.59375,0 0.59375,0.109375 0.59375,0.21875 0,0.078125 -0.015625,0.171875 -0.03125,0.203125 L 0.703125,-0.46875 C 0.65625,-0.28125 0.65625,-0.265625 0.65625,-0.1875 c 0,0.265625 0.203125,0.3125 0.328125,0.3125 0.203125,0 0.359375,-0.15625 0.421875,-0.296875 L 1.9375,-2.328125 C 2,-2.59375 2.0625,-2.84375 2.125,-3.109375 2.265625,-3.609375 2.265625,-3.625 2.484375,-3.96875 2.71875,-4.3125 3.25,-5.03125 4.171875,-5.03125 c 0.484375,0 0.640625,0.359375 0.640625,0.828125 0,0.671875 -0.46875,1.984375 -0.71875,2.703125 -0.109375,0.28125 -0.171875,0.4375 -0.171875,0.65625 0,0.53125 0.375,0.96875 0.9375,0.96875 1.109375,0 1.53125,-1.765625 1.53125,-1.828125 0,-0.0625 -0.046875,-0.109375 -0.109375,-0.109375 -0.109375,0 -0.125,0.03125 -0.1875,0.234375 C 5.828125,-0.625 5.375,-0.125 4.90625,-0.125 c -0.125,0 -0.3125,0 -0.3125,-0.390625 0,-0.3125 0.140625,-0.6875 0.1875,-0.828125 0.21875,-0.5625 0.75,-1.984375 0.75,-2.671875 0,-0.71875 -0.421875,-1.25 -1.328125,-1.25 -0.671875,0 -1.28125,0.3125 -1.765625,0.9375 z m 0,0"
               id="path5450" />
          </g>
        </g>
      </g>
    </g>
    <g
       inkscape:label=""
       transform="translate(53.149373,28.112809)"
       id="g6359">
      <g
         fill="#000000"
         fill-opacity="1"
         id="g6357"
         transform="matrix(0.352778,0,0,0.352778,-0.115755,0.0418483)">
        <g
           id="g6355"
           transform="translate(0,5.1469998)">
          <path
             d="m 4.65625,-4.890625 c -0.375,0.078125 -0.5625,0.34375 -0.5625,0.59375 0,0.296875 0.21875,0.390625 0.390625,0.390625 0.328125,0 0.609375,-0.296875 0.609375,-0.640625 0,-0.390625 -0.375,-0.71875 -0.96875,-0.71875 -0.484375,0 -1.03125,0.203125 -1.53125,0.9375 -0.078125,-0.625 -0.5625,-0.9375 -1.046875,-0.9375 -0.453125,0 -0.703125,0.359375 -0.84375,0.609375 -0.203125,0.4375 -0.375,1.15625 -0.375,1.21875 0,0.046875 0.046875,0.109375 0.125,0.109375 0.09375,0 0.109375,-0.015625 0.1875,-0.296875 0.171875,-0.71875 0.40625,-1.40625 0.875,-1.40625 0.296875,0 0.375,0.203125 0.375,0.546875 0,0.265625 -0.125,0.734375 -0.203125,1.109375 l -0.34375,1.28125 c -0.046875,0.234375 -0.171875,0.765625 -0.234375,0.984375 -0.078125,0.3125 -0.21875,0.875 -0.21875,0.9375 0,0.15625 0.140625,0.296875 0.3125,0.296875 0.140625,0 0.359375,-0.09375 0.4375,-0.328125 C 1.671875,-0.296875 2.109375,-2.109375 2.1875,-2.375 2.25,-2.640625 2.3125,-2.890625 2.375,-3.15625 2.421875,-3.328125 2.46875,-3.515625 2.515625,-3.671875 2.546875,-3.78125 2.875,-4.359375 3.171875,-4.625 3.3125,-4.75 3.625,-5.03125 4.109375,-5.03125 4.296875,-5.03125 4.5,-5 4.65625,-4.890625 Z m 0,0"
             id="path6353" />
        </g>
      </g>
    </g>
    <g
       inkscape:label=""
       transform="translate(47.740949,44.048115)"
       id="g7274">
      <g
         clip-path="url(#clipPath2123)"
         id="g27"
         transform="matrix(0.352778,0,0,0.352778,-0.115755,-0.602677)">
        <g
           fill="#000000"
           fill-opacity="1"
           id="g25">
          <g
             id="use23"
             transform="translate(0,6.974)">
            <path
               d="m 4.65625,-4.890625 c -0.375,0.078125 -0.5625,0.34375 -0.5625,0.59375 0,0.296875 0.21875,0.390625 0.390625,0.390625 0.328125,0 0.609375,-0.296875 0.609375,-0.640625 0,-0.390625 -0.375,-0.71875 -0.96875,-0.71875 -0.484375,0 -1.03125,0.203125 -1.53125,0.9375 -0.078125,-0.625 -0.5625,-0.9375 -1.046875,-0.9375 -0.453125,0 -0.703125,0.359375 -0.84375,0.609375 -0.203125,0.4375 -0.375,1.15625 -0.375,1.21875 0,0.046875 0.046875,0.109375 0.125,0.109375 0.09375,0 0.109375,-0.015625 0.1875,-0.296875 0.171875,-0.71875 0.40625,-1.40625 0.875,-1.40625 0.296875,0 0.375,0.203125 0.375,0.546875 0,0.265625 -0.125,0.734375 -0.203125,1.109375 l -0.34375,1.28125 c -0.046875,0.234375 -0.171875,0.765625 -0.234375,0.984375 -0.078125,0.3125 -0.21875,0.875 -0.21875,0.9375 0,0.15625 0.140625,0.296875 0.3125,0.296875 0.140625,0 0.359375,-0.09375 0.4375,-0.328125 C 1.671875,-0.296875 2.109375,-2.109375 2.1875,-2.375 2.25,-2.640625 2.3125,-2.890625 2.375,-3.15625 2.421875,-3.328125 2.46875,-3.515625 2.515625,-3.671875 2.546875,-3.78125 2.875,-4.359375 3.171875,-4.625 3.3125,-4.75 3.625,-5.03125 4.109375,-5.03125 4.296875,-5.03125 4.5,-5 4.65625,-4.890625 Z m 0,0"
               id="path43" />
          </g>
        </g>
      </g>
      <g
         fill="#000000"
         fill-opacity="1"
         id="g31"
         transform="matrix(0.352778,0,0,0.352778,-0.115755,-0.602677)">
        <g
           id="use29"
           transform="translate(8.257,6.974)">
          <path
             d="m 7.875,-2.75 c 0.203125,0 0.421875,0 0.421875,-0.234375 0,-0.25 -0.21875,-0.25 -0.421875,-0.25 H 1.40625 c -0.203125,0 -0.421875,0 -0.421875,0.25 0,0.234375 0.21875,0.234375 0.421875,0.234375 z m 0,0"
             id="path47" />
        </g>
      </g>
      <g
         clip-path="url(#clipPath5268)"
         id="g37"
         transform="matrix(0.352778,0,0,0.352778,-0.115755,-0.602677)">
        <g
           fill="#000000"
           fill-opacity="1"
           id="g35">
          <g
             id="use33"
             transform="translate(20.212,6.974)">
            <path
               d="m 5.671875,-4.875 c -0.390625,0.0625 -0.53125,0.359375 -0.53125,0.578125 0,0.296875 0.21875,0.390625 0.390625,0.390625 0.359375,0 0.609375,-0.3125 0.609375,-0.640625 0,-0.5 -0.578125,-0.71875 -1.078125,-0.71875 -0.71875,0 -1.125,0.71875 -1.234375,0.9375 -0.28125,-0.890625 -1.015625,-0.9375 -1.234375,-0.9375 -1.21875,0 -1.859375,1.5625 -1.859375,1.828125 0,0.046875 0.046875,0.109375 0.125,0.109375 0.09375,0 0.125,-0.078125 0.140625,-0.125 0.40625,-1.328125 1.21875,-1.578125 1.5625,-1.578125 0.53125,0 0.640625,0.5 0.640625,0.78125 0,0.265625 -0.078125,0.546875 -0.21875,1.125 L 2.578125,-1.5 c -0.171875,0.71875 -0.515625,1.375 -1.15625,1.375 -0.0625,0 -0.359375,0 -0.609375,-0.15625 C 1.25,-0.359375 1.34375,-0.71875 1.34375,-0.859375 1.34375,-1.09375 1.15625,-1.25 0.9375,-1.25 c -0.296875,0 -0.609375,0.265625 -0.609375,0.640625 0,0.5 0.5625,0.734375 1.078125,0.734375 0.578125,0 0.984375,-0.453125 1.234375,-0.953125 C 2.828125,-0.125 3.4375,0.125 3.875,0.125 5.09375,0.125 5.734375,-1.453125 5.734375,-1.703125 5.734375,-1.765625 5.6875,-1.8125 5.625,-1.8125 5.515625,-1.8125 5.5,-1.75 5.46875,-1.65625 5.140625,-0.609375 4.453125,-0.125 3.90625,-0.125 3.484375,-0.125 3.265625,-0.4375 3.265625,-0.921875 3.265625,-1.1875 3.3125,-1.375 3.5,-2.15625 L 3.921875,-3.796875 C 4.09375,-4.5 4.5,-5.03125 5.0625,-5.03125 c 0.015625,0 0.359375,0 0.609375,0.15625 z m 0,0"
               id="path51" />
          </g>
        </g>
      </g>
    </g>
  </g>
</svg>
